G04 #@! TF.FileFunction,Legend,Top*
%FSLAX46Y46*%
G04 Gerber Fmt 4.6, Leading zero omitted, Abs format (unit mm)*
G04 Created by KiCad (PCBNEW 4.0.7) date 11/25/17 15:46:29*
%MOMM*%
%LPD*%
G01*
G04 APERTURE LIST*
%ADD10C,0.100000*%
%ADD11C,0.120000*%
%ADD12C,0.150000*%
G04 APERTURE END LIST*
D10*
D11*
X127930000Y-96650000D02*
X131150000Y-96650000D01*
X131150000Y-96650000D02*
X131150000Y-91430000D01*
X131150000Y-91430000D02*
X127930000Y-91430000D01*
X127930000Y-91430000D02*
X127930000Y-96650000D01*
X129540000Y-96810000D02*
X129540000Y-96650000D01*
X129540000Y-91270000D02*
X129540000Y-91430000D01*
X154380000Y-100420000D02*
X150460000Y-100420000D01*
X154380000Y-97700000D02*
X150460000Y-97700000D01*
X154380000Y-100420000D02*
X154380000Y-99810000D01*
X154380000Y-98310000D02*
X154380000Y-97700000D01*
X150460000Y-100420000D02*
X150460000Y-99810000D01*
X150460000Y-98310000D02*
X150460000Y-97700000D01*
X120770000Y-99200000D02*
X120770000Y-96380000D01*
X120770000Y-96380000D02*
X115450000Y-96380000D01*
X115450000Y-96380000D02*
X115450000Y-99200000D01*
X115450000Y-99200000D02*
X120770000Y-99200000D01*
X120840000Y-97790000D02*
X120770000Y-97790000D01*
X115380000Y-97790000D02*
X115450000Y-97790000D01*
X119930000Y-99200000D02*
X119930000Y-96380000D01*
X115450000Y-90030000D02*
X115450000Y-92850000D01*
X115450000Y-92850000D02*
X120770000Y-92850000D01*
X120770000Y-92850000D02*
X120770000Y-90030000D01*
X120770000Y-90030000D02*
X115450000Y-90030000D01*
X115380000Y-91440000D02*
X115450000Y-91440000D01*
X120840000Y-91440000D02*
X120770000Y-91440000D01*
X116290000Y-90030000D02*
X116290000Y-92850000D01*
X120770000Y-105550000D02*
X120770000Y-102730000D01*
X120770000Y-102730000D02*
X115450000Y-102730000D01*
X115450000Y-102730000D02*
X115450000Y-105550000D01*
X115450000Y-105550000D02*
X120770000Y-105550000D01*
X120840000Y-104140000D02*
X120770000Y-104140000D01*
X115380000Y-104140000D02*
X115450000Y-104140000D01*
X119930000Y-105550000D02*
X119930000Y-102730000D01*
X115450000Y-109080000D02*
X115450000Y-111900000D01*
X115450000Y-111900000D02*
X120770000Y-111900000D01*
X120770000Y-111900000D02*
X120770000Y-109080000D01*
X120770000Y-109080000D02*
X115450000Y-109080000D01*
X115380000Y-110490000D02*
X115450000Y-110490000D01*
X120840000Y-110490000D02*
X120770000Y-110490000D01*
X116290000Y-109080000D02*
X116290000Y-111900000D01*
X102550000Y-82020000D02*
X107140000Y-82020000D01*
X122550000Y-82020000D02*
X122550000Y-88020000D01*
X122550000Y-88020000D02*
X102550000Y-88020000D01*
X102550000Y-88020000D02*
X102550000Y-82020000D01*
X108760000Y-82020000D02*
X116330000Y-82020000D01*
X117970000Y-82020000D02*
X122550000Y-82020000D01*
D12*
X144970000Y-84090000D02*
X144970000Y-91090000D01*
X148370000Y-84090000D02*
X148370000Y-91090000D01*
X148370000Y-91090000D02*
X144970000Y-91090000D01*
X148370000Y-84090000D02*
X144970000Y-84090000D01*
D11*
X103310000Y-98480000D02*
X103310000Y-105680000D01*
X102210000Y-98480000D02*
X102210000Y-105680000D01*
X101710000Y-98480000D02*
X108910000Y-98480000D01*
X108910000Y-98480000D02*
X108910000Y-105680000D01*
X108910000Y-105680000D02*
X101710000Y-105680000D01*
X102210000Y-102080000D02*
X101810000Y-102080000D01*
X103560000Y-98240000D02*
X101470000Y-98240000D01*
X101470000Y-98240000D02*
X101470000Y-100330000D01*
X146740000Y-79570000D02*
X160940000Y-79570000D01*
X146740000Y-80670000D02*
X160940000Y-80670000D01*
X146740000Y-81170000D02*
X146740000Y-73970000D01*
X146740000Y-73970000D02*
X160940000Y-73970000D01*
X160940000Y-73970000D02*
X160940000Y-81170000D01*
X150340000Y-80670000D02*
X150340000Y-81070000D01*
X153840000Y-80670000D02*
X153840000Y-81070000D01*
X157340000Y-80670000D02*
X157340000Y-81070000D01*
X146500000Y-79320000D02*
X146500000Y-81410000D01*
X146500000Y-81410000D02*
X148590000Y-81410000D01*
X175700000Y-92130000D02*
X175700000Y-99330000D01*
X174600000Y-92130000D02*
X174600000Y-99330000D01*
X174100000Y-92130000D02*
X181300000Y-92130000D01*
X181300000Y-92130000D02*
X181300000Y-99330000D01*
X181300000Y-99330000D02*
X174100000Y-99330000D01*
X174600000Y-95730000D02*
X174200000Y-95730000D01*
X175950000Y-91890000D02*
X173860000Y-91890000D01*
X173860000Y-91890000D02*
X173860000Y-93980000D01*
X154530000Y-85770000D02*
X154530000Y-89490000D01*
X152810000Y-85770000D02*
X152810000Y-89490000D01*
X152990000Y-94840000D02*
X149270000Y-94840000D01*
X152990000Y-93120000D02*
X149270000Y-93120000D01*
X161880000Y-94840000D02*
X158160000Y-94840000D01*
X161880000Y-93120000D02*
X158160000Y-93120000D01*
X163420000Y-85770000D02*
X163420000Y-89490000D01*
X161700000Y-85770000D02*
X161700000Y-89490000D01*
X170770000Y-94840000D02*
X167050000Y-94840000D01*
X170770000Y-93120000D02*
X167050000Y-93120000D01*
X172310000Y-85770000D02*
X172310000Y-89490000D01*
X170590000Y-85770000D02*
X170590000Y-89490000D01*
X134540000Y-99100000D02*
X134540000Y-88860000D01*
X139181000Y-99100000D02*
X139181000Y-88860000D01*
X134540000Y-99100000D02*
X139181000Y-99100000D01*
X134540000Y-88860000D02*
X139181000Y-88860000D01*
X136050000Y-99100000D02*
X136050000Y-88860000D01*
X134540000Y-95830000D02*
X136050000Y-95830000D01*
X134540000Y-92129000D02*
X136050000Y-92129000D01*
D12*
X127287143Y-94206666D02*
X127334762Y-94254285D01*
X127382381Y-94397142D01*
X127382381Y-94492380D01*
X127334762Y-94635238D01*
X127239524Y-94730476D01*
X127144286Y-94778095D01*
X126953810Y-94825714D01*
X126810952Y-94825714D01*
X126620476Y-94778095D01*
X126525238Y-94730476D01*
X126430000Y-94635238D01*
X126382381Y-94492380D01*
X126382381Y-94397142D01*
X126430000Y-94254285D01*
X126477619Y-94206666D01*
X127382381Y-93254285D02*
X127382381Y-93825714D01*
X127382381Y-93540000D02*
X126382381Y-93540000D01*
X126525238Y-93635238D01*
X126620476Y-93730476D01*
X126668095Y-93825714D01*
X152253334Y-102027143D02*
X152205715Y-102074762D01*
X152062858Y-102122381D01*
X151967620Y-102122381D01*
X151824762Y-102074762D01*
X151729524Y-101979524D01*
X151681905Y-101884286D01*
X151634286Y-101693810D01*
X151634286Y-101550952D01*
X151681905Y-101360476D01*
X151729524Y-101265238D01*
X151824762Y-101170000D01*
X151967620Y-101122381D01*
X152062858Y-101122381D01*
X152205715Y-101170000D01*
X152253334Y-101217619D01*
X152634286Y-101217619D02*
X152681905Y-101170000D01*
X152777143Y-101122381D01*
X153015239Y-101122381D01*
X153110477Y-101170000D01*
X153158096Y-101217619D01*
X153205715Y-101312857D01*
X153205715Y-101408095D01*
X153158096Y-101550952D01*
X152586667Y-102122381D01*
X153205715Y-102122381D01*
X117371905Y-100652381D02*
X117371905Y-99652381D01*
X117610000Y-99652381D01*
X117752858Y-99700000D01*
X117848096Y-99795238D01*
X117895715Y-99890476D01*
X117943334Y-100080952D01*
X117943334Y-100223810D01*
X117895715Y-100414286D01*
X117848096Y-100509524D01*
X117752858Y-100604762D01*
X117610000Y-100652381D01*
X117371905Y-100652381D01*
X118895715Y-100652381D02*
X118324286Y-100652381D01*
X118610000Y-100652381D02*
X118610000Y-99652381D01*
X118514762Y-99795238D01*
X118419524Y-99890476D01*
X118324286Y-99938095D01*
X117371905Y-89482381D02*
X117371905Y-88482381D01*
X117610000Y-88482381D01*
X117752858Y-88530000D01*
X117848096Y-88625238D01*
X117895715Y-88720476D01*
X117943334Y-88910952D01*
X117943334Y-89053810D01*
X117895715Y-89244286D01*
X117848096Y-89339524D01*
X117752858Y-89434762D01*
X117610000Y-89482381D01*
X117371905Y-89482381D01*
X118324286Y-88577619D02*
X118371905Y-88530000D01*
X118467143Y-88482381D01*
X118705239Y-88482381D01*
X118800477Y-88530000D01*
X118848096Y-88577619D01*
X118895715Y-88672857D01*
X118895715Y-88768095D01*
X118848096Y-88910952D01*
X118276667Y-89482381D01*
X118895715Y-89482381D01*
X117371905Y-107002381D02*
X117371905Y-106002381D01*
X117610000Y-106002381D01*
X117752858Y-106050000D01*
X117848096Y-106145238D01*
X117895715Y-106240476D01*
X117943334Y-106430952D01*
X117943334Y-106573810D01*
X117895715Y-106764286D01*
X117848096Y-106859524D01*
X117752858Y-106954762D01*
X117610000Y-107002381D01*
X117371905Y-107002381D01*
X118276667Y-106002381D02*
X118895715Y-106002381D01*
X118562381Y-106383333D01*
X118705239Y-106383333D01*
X118800477Y-106430952D01*
X118848096Y-106478571D01*
X118895715Y-106573810D01*
X118895715Y-106811905D01*
X118848096Y-106907143D01*
X118800477Y-106954762D01*
X118705239Y-107002381D01*
X118419524Y-107002381D01*
X118324286Y-106954762D01*
X118276667Y-106907143D01*
X117371905Y-108532381D02*
X117371905Y-107532381D01*
X117610000Y-107532381D01*
X117752858Y-107580000D01*
X117848096Y-107675238D01*
X117895715Y-107770476D01*
X117943334Y-107960952D01*
X117943334Y-108103810D01*
X117895715Y-108294286D01*
X117848096Y-108389524D01*
X117752858Y-108484762D01*
X117610000Y-108532381D01*
X117371905Y-108532381D01*
X118800477Y-107865714D02*
X118800477Y-108532381D01*
X118562381Y-107484762D02*
X118324286Y-108199048D01*
X118943334Y-108199048D01*
X112186667Y-80968571D02*
X111853333Y-80968571D01*
X111853333Y-81492381D02*
X111853333Y-80492381D01*
X112329524Y-80492381D01*
X113234286Y-81492381D02*
X112662857Y-81492381D01*
X112948571Y-81492381D02*
X112948571Y-80492381D01*
X112853333Y-80635238D01*
X112758095Y-80730476D01*
X112662857Y-80778095D01*
X143898571Y-87923333D02*
X143898571Y-88256667D01*
X144422381Y-88256667D02*
X143422381Y-88256667D01*
X143422381Y-87780476D01*
X143517619Y-87447143D02*
X143470000Y-87399524D01*
X143422381Y-87304286D01*
X143422381Y-87066190D01*
X143470000Y-86970952D01*
X143517619Y-86923333D01*
X143612857Y-86875714D01*
X143708095Y-86875714D01*
X143850952Y-86923333D01*
X144422381Y-87494762D01*
X144422381Y-86875714D01*
X109462381Y-102413333D02*
X110176667Y-102413333D01*
X110319524Y-102460953D01*
X110414762Y-102556191D01*
X110462381Y-102699048D01*
X110462381Y-102794286D01*
X110462381Y-101413333D02*
X110462381Y-101984762D01*
X110462381Y-101699048D02*
X109462381Y-101699048D01*
X109605238Y-101794286D01*
X109700476Y-101889524D01*
X109748095Y-101984762D01*
X153506667Y-72322381D02*
X153506667Y-73036667D01*
X153459047Y-73179524D01*
X153363809Y-73274762D01*
X153220952Y-73322381D01*
X153125714Y-73322381D01*
X153935238Y-72417619D02*
X153982857Y-72370000D01*
X154078095Y-72322381D01*
X154316191Y-72322381D01*
X154411429Y-72370000D01*
X154459048Y-72417619D01*
X154506667Y-72512857D01*
X154506667Y-72608095D01*
X154459048Y-72750952D01*
X153887619Y-73322381D01*
X154506667Y-73322381D01*
X181852381Y-96063333D02*
X182566667Y-96063333D01*
X182709524Y-96110953D01*
X182804762Y-96206191D01*
X182852381Y-96349048D01*
X182852381Y-96444286D01*
X181852381Y-95682381D02*
X181852381Y-95063333D01*
X182233333Y-95396667D01*
X182233333Y-95253809D01*
X182280952Y-95158571D01*
X182328571Y-95110952D01*
X182423810Y-95063333D01*
X182661905Y-95063333D01*
X182757143Y-95110952D01*
X182804762Y-95158571D01*
X182852381Y-95253809D01*
X182852381Y-95539524D01*
X182804762Y-95634762D01*
X182757143Y-95682381D01*
X155982381Y-87796666D02*
X155506190Y-88130000D01*
X155982381Y-88368095D02*
X154982381Y-88368095D01*
X154982381Y-87987142D01*
X155030000Y-87891904D01*
X155077619Y-87844285D01*
X155172857Y-87796666D01*
X155315714Y-87796666D01*
X155410952Y-87844285D01*
X155458571Y-87891904D01*
X155506190Y-87987142D01*
X155506190Y-88368095D01*
X155982381Y-86844285D02*
X155982381Y-87415714D01*
X155982381Y-87130000D02*
X154982381Y-87130000D01*
X155125238Y-87225238D01*
X155220476Y-87320476D01*
X155268095Y-87415714D01*
X150963334Y-96292381D02*
X150630000Y-95816190D01*
X150391905Y-96292381D02*
X150391905Y-95292381D01*
X150772858Y-95292381D01*
X150868096Y-95340000D01*
X150915715Y-95387619D01*
X150963334Y-95482857D01*
X150963334Y-95625714D01*
X150915715Y-95720952D01*
X150868096Y-95768571D01*
X150772858Y-95816190D01*
X150391905Y-95816190D01*
X151344286Y-95387619D02*
X151391905Y-95340000D01*
X151487143Y-95292381D01*
X151725239Y-95292381D01*
X151820477Y-95340000D01*
X151868096Y-95387619D01*
X151915715Y-95482857D01*
X151915715Y-95578095D01*
X151868096Y-95720952D01*
X151296667Y-96292381D01*
X151915715Y-96292381D01*
X159853334Y-96292381D02*
X159520000Y-95816190D01*
X159281905Y-96292381D02*
X159281905Y-95292381D01*
X159662858Y-95292381D01*
X159758096Y-95340000D01*
X159805715Y-95387619D01*
X159853334Y-95482857D01*
X159853334Y-95625714D01*
X159805715Y-95720952D01*
X159758096Y-95768571D01*
X159662858Y-95816190D01*
X159281905Y-95816190D01*
X160186667Y-95292381D02*
X160805715Y-95292381D01*
X160472381Y-95673333D01*
X160615239Y-95673333D01*
X160710477Y-95720952D01*
X160758096Y-95768571D01*
X160805715Y-95863810D01*
X160805715Y-96101905D01*
X160758096Y-96197143D01*
X160710477Y-96244762D01*
X160615239Y-96292381D01*
X160329524Y-96292381D01*
X160234286Y-96244762D01*
X160186667Y-96197143D01*
X164872381Y-87796666D02*
X164396190Y-88130000D01*
X164872381Y-88368095D02*
X163872381Y-88368095D01*
X163872381Y-87987142D01*
X163920000Y-87891904D01*
X163967619Y-87844285D01*
X164062857Y-87796666D01*
X164205714Y-87796666D01*
X164300952Y-87844285D01*
X164348571Y-87891904D01*
X164396190Y-87987142D01*
X164396190Y-88368095D01*
X164205714Y-86939523D02*
X164872381Y-86939523D01*
X163824762Y-87177619D02*
X164539048Y-87415714D01*
X164539048Y-86796666D01*
X168743334Y-96292381D02*
X168410000Y-95816190D01*
X168171905Y-96292381D02*
X168171905Y-95292381D01*
X168552858Y-95292381D01*
X168648096Y-95340000D01*
X168695715Y-95387619D01*
X168743334Y-95482857D01*
X168743334Y-95625714D01*
X168695715Y-95720952D01*
X168648096Y-95768571D01*
X168552858Y-95816190D01*
X168171905Y-95816190D01*
X169648096Y-95292381D02*
X169171905Y-95292381D01*
X169124286Y-95768571D01*
X169171905Y-95720952D01*
X169267143Y-95673333D01*
X169505239Y-95673333D01*
X169600477Y-95720952D01*
X169648096Y-95768571D01*
X169695715Y-95863810D01*
X169695715Y-96101905D01*
X169648096Y-96197143D01*
X169600477Y-96244762D01*
X169505239Y-96292381D01*
X169267143Y-96292381D01*
X169171905Y-96244762D01*
X169124286Y-96197143D01*
X173762381Y-87796666D02*
X173286190Y-88130000D01*
X173762381Y-88368095D02*
X172762381Y-88368095D01*
X172762381Y-87987142D01*
X172810000Y-87891904D01*
X172857619Y-87844285D01*
X172952857Y-87796666D01*
X173095714Y-87796666D01*
X173190952Y-87844285D01*
X173238571Y-87891904D01*
X173286190Y-87987142D01*
X173286190Y-88368095D01*
X172762381Y-86939523D02*
X172762381Y-87130000D01*
X172810000Y-87225238D01*
X172857619Y-87272857D01*
X173000476Y-87368095D01*
X173190952Y-87415714D01*
X173571905Y-87415714D01*
X173667143Y-87368095D01*
X173714762Y-87320476D01*
X173762381Y-87225238D01*
X173762381Y-87034761D01*
X173714762Y-86939523D01*
X173667143Y-86891904D01*
X173571905Y-86844285D01*
X173333810Y-86844285D01*
X173238571Y-86891904D01*
X173190952Y-86939523D01*
X173143333Y-87034761D01*
X173143333Y-87225238D01*
X173190952Y-87320476D01*
X173238571Y-87368095D01*
X173333810Y-87415714D01*
X132992381Y-94741905D02*
X133801905Y-94741905D01*
X133897143Y-94694286D01*
X133944762Y-94646667D01*
X133992381Y-94551429D01*
X133992381Y-94360952D01*
X133944762Y-94265714D01*
X133897143Y-94218095D01*
X133801905Y-94170476D01*
X132992381Y-94170476D01*
X133992381Y-93170476D02*
X133992381Y-93741905D01*
X133992381Y-93456191D02*
X132992381Y-93456191D01*
X133135238Y-93551429D01*
X133230476Y-93646667D01*
X133278095Y-93741905D01*
M02*
