G04 #@! TF.FileFunction,Copper,L2,Bot,Signal*
%FSLAX46Y46*%
G04 Gerber Fmt 4.6, Leading zero omitted, Abs format (unit mm)*
G04 Created by KiCad (PCBNEW 4.0.7) date 11/25/17 15:46:29*
%MOMM*%
%LPD*%
G01*
G04 APERTURE LIST*
%ADD10C,0.100000*%
%ADD11C,1.600000*%
%ADD12O,1.600000X1.600000*%
%ADD13R,1.800000X1.800000*%
%ADD14O,1.800000X1.800000*%
%ADD15C,3.500000*%
%ADD16C,2.400000*%
%ADD17R,2.400000X2.400000*%
%ADD18C,1.400000*%
%ADD19O,1.400000X1.400000*%
G04 APERTURE END LIST*
D10*
D11*
X129540000Y-97790000D03*
D12*
X129540000Y-90290000D03*
D11*
X153670000Y-99060000D03*
X151170000Y-99060000D03*
D13*
X121920000Y-97790000D03*
D14*
X114300000Y-97790000D03*
D13*
X114300000Y-91440000D03*
D14*
X121920000Y-91440000D03*
D13*
X121920000Y-104140000D03*
D14*
X114300000Y-104140000D03*
D13*
X114300000Y-110490000D03*
D14*
X121920000Y-110490000D03*
D15*
X107950000Y-83820000D03*
D16*
X112550000Y-85020000D03*
D15*
X117150000Y-83820000D03*
D11*
X147320000Y-85090000D03*
X146020000Y-90090000D03*
D17*
X105410000Y-100330000D03*
D16*
X105410000Y-103830000D03*
D17*
X148590000Y-77470000D03*
D16*
X152090000Y-77470000D03*
X155590000Y-77470000D03*
X159090000Y-77470000D03*
D17*
X177800000Y-93980000D03*
D16*
X177800000Y-97480000D03*
D18*
X153670000Y-85090000D03*
D19*
X153670000Y-90170000D03*
D18*
X153670000Y-93980000D03*
D19*
X148590000Y-93980000D03*
D18*
X162560000Y-93980000D03*
D19*
X157480000Y-93980000D03*
D18*
X162560000Y-85090000D03*
D19*
X162560000Y-90170000D03*
D18*
X171450000Y-93980000D03*
D19*
X166370000Y-93980000D03*
D18*
X171450000Y-85090000D03*
D19*
X171450000Y-90170000D03*
D13*
X137160000Y-96520000D03*
D14*
X137160000Y-93980000D03*
X137160000Y-91440000D03*
M02*
